<svg xmlns="http://www.w3.org/2000/svg" aria-hidden="true" style="position:absolute;width:0;height:0;overflow:hidden">
    <defs>
        <symbol id="icon-pointer-left" viewBox="0 0 32 32">
            <path d="M19.5 28c0 0 0 0 0 0-1 0-1.8-0.4-2.5-1l-9.3-9.4c-0.9-0.9-0.9-2.3 0-3.1l9.3-9.4c0.7-0.7 1.6-1 2.5-1 0 0 0 0 0 0 1 0 1.8 0.4 2.5 1 1.4 1.4 1.4 3.6 0 5l-5.7 5.8c-0.1 0.1-0.1 0.2 0 0.3l5.7 5.8c1.4 1.4 1.4 3.6 0 5-0.7 0.6-1.6 1-2.5 1zM8.3 15.1v0 0z"></path>
        </symbol>
        <symbol id="icon-pointer-right" viewBox="0 0 32 32">
            <path d="M12.5 28c-1 0-1.8-0.4-2.5-1-1.4-1.4-1.4-3.6 0-5l5.7-5.8c0.1-0.1 0.1-0.2 0-0.3l-5.7-5.8c-1.4-1.4-1.4-3.6 0-5 0.7-0.7 1.6-1 2.5-1 0 0 0 0 0 0 1 0 1.8 0.4 2.5 1l9.3 9.4c0.9 0.9 0.9 2.3 0 3.1l-9.3 9.4c-0.6 0.6-1.5 1-2.5 1 0 0 0 0 0 0z"></path>
        </symbol>
    </defs>
</svg>