<svg xmlns="http://www.w3.org/2000/svg" aria-hidden="true" style="position:absolute;width:0;height:0;overflow:hidden">
  <defs>
    <symbol id="icon-subscription-check" viewBox="0 0 44 32">
      <path stroke-linecap="round" stroke-linejoin="round" stroke-width="6" d="M39.334 5 15.501 28.833 4.668 18"/>
    </symbol>
    <symbol id="icon-subscription-input-error" viewBox="0 0 32 32">
      <path d="M14.4 20.8h3.2V24h-3.2v-3.2zm0-12.8h3.2v9.6h-3.2V8zm1.584-8C7.152 0 0 7.168 0 16s7.152 16 15.984 16C24.832 32 32 24.832 32 16S24.832 0 15.984 0zM16 28.8C8.928 28.8 3.2 23.072 3.2 16S8.928 3.2 16 3.2c7.072 0 12.8 5.728 12.8 12.8S23.072 28.8 16 28.8z"/>
    </symbol>
  </defs>
</svg>
